<?xml version="1.0" encoding="utf-8"?>
<!-- Generator: Adobe Illustrator 14.0.0, SVG Export Plug-In . SVG Version: 6.00 Build 43363)  -->
<!DOCTYPE svg PUBLIC "-//W3C//DTD SVG 1.1//EN" "http://www.w3.org/Graphics/SVG/1.1/DTD/svg11.dtd">
<svg version="1.1"
	 id="svg2" xmlns:cc="http://creativecommons.org/ns#" inkscape:version="0.48.4 r" xmlns:dc="http://purl.org/dc/elements/1.1/" xmlns:rdf="http://www.w3.org/1999/02/22-rdf-syntax-ns#" xmlns:sodipodi="http://sodipodi.sourceforge.net/DTD/sodipodi-0.dtd" xmlns:inkscape="http://www.inkscape.org/namespaces/inkscape" sodipodi:docname="Wikimedia_button.svg" xmlns:svg="http://www.w3.org/2000/svg"
	 xmlns="http://www.w3.org/2000/svg" xmlns:xlink="http://www.w3.org/1999/xlink" x="0px" y="0px" width="88px" height="31px"
	 viewBox="-172 272.5 88 31" enable-background="new -172 272.5 88 31" xml:space="preserve">
<defs>
	
	
		<inkscape:perspective  id="perspective2673" inkscape:persp3d-origin="372.04724 : 350.78739 : 1" inkscape:vp_z="744.09448 : 526.18109 : 1" inkscape:vp_x="0 : 526.18109 : 1" sodipodi:type="inkscape:persp3d" inkscape:vp_y="0 : 1000 : 0">
		</inkscape:perspective>
	
		<inkscape:perspective  id="perspective2455" inkscape:persp3d-origin="372.04724 : 350.78739 : 1" inkscape:vp_z="744.09448 : 526.18109 : 1" inkscape:vp_x="0 : 526.18109 : 1" sodipodi:type="inkscape:persp3d" inkscape:vp_y="0 : 1000 : 0">
		</inkscape:perspective>
	
		<inkscape:perspective  id="perspective2390" inkscape:persp3d-origin="372.04724 : 350.78739 : 1" inkscape:vp_z="744.09448 : 526.18109 : 1" inkscape:vp_x="0 : 526.18109 : 1" sodipodi:type="inkscape:persp3d" inkscape:vp_y="0 : 1000 : 0">
		</inkscape:perspective>
	
		<inkscape:perspective  id="perspective10" inkscape:persp3d-origin="372.04724 : 350.78739 : 1" inkscape:vp_z="744.09448 : 526.18109 : 1" inkscape:vp_x="0 : 526.18109 : 1" sodipodi:type="inkscape:persp3d" inkscape:vp_y="0 : 1000 : 0">
		</inkscape:perspective>
</defs>
<sodipodi:namedview  id="base" inkscape:window-y="0" inkscape:window-x="0" inkscape:window-height="852" inkscape:window-width="1440" fit-margin-bottom="0" fit-margin-right="0" fit-margin-left="0" fit-margin-top="0" showgrid="false" inkscape:current-layer="layer3" inkscape:document-units="px" inkscape:cy="22.076182" inkscape:cx="34.974137" inkscape:zoom="8" inkscape:pageshadow="2" inkscape:pageopacity="0.0" borderopacity="1.0" bordercolor="#666666" pagecolor="#ffffff" inkscape:window-maximized="1">
	</sodipodi:namedview>
<path fill="#BB6C78" d="M-84.164,303.5H-172v-31h87.836V303.5L-84.164,303.5z M-170.2,301.735h84.235v-27.471H-170.2V301.735
	L-170.2,301.735z"/>
<path id="text2679" inkscape:connector-curvature="0" fill="#006699" d="M-134.439,281.686h0.562c0.399,0,0.689-0.068,0.869-0.203
	c0.18-0.135,0.27-0.35,0.27-0.644s-0.091-0.513-0.273-0.655c-0.183-0.143-0.462-0.213-0.839-0.213h-0.587V281.686z
	 M-134.439,284.461h-0.768v-5.181h1.241c0.35,0,0.617,0.016,0.799,0.05c0.182,0.033,0.342,0.089,0.479,0.167
	c0.223,0.126,0.4,0.306,0.532,0.539c0.132,0.234,0.199,0.487,0.199,0.76c0,0.482-0.168,0.865-0.503,1.151
	c-0.336,0.286-0.79,0.429-1.363,0.429h-0.617V284.461z M-130.862,282.5c0,0.391,0.128,0.718,0.384,0.978
	c0.256,0.261,0.575,0.392,0.957,0.392c0.375,0,0.689-0.131,0.942-0.393c0.253-0.263,0.38-0.591,0.38-0.984
	c0-0.396-0.126-0.724-0.38-0.982s-0.57-0.388-0.949-0.388c-0.377,0-0.694,0.131-0.95,0.393
	C-130.733,281.779-130.862,282.107-130.862,282.5L-130.862,282.5z M-131.614,282.507c0-0.277,0.048-0.537,0.145-0.778
	c0.097-0.24,0.239-0.457,0.428-0.649c0.203-0.211,0.432-0.374,0.687-0.487s0.52-0.171,0.793-0.171c0.294,0,0.566,0.051,0.817,0.153
	c0.251,0.102,0.479,0.253,0.682,0.452c0.199,0.197,0.351,0.418,0.458,0.665c0.106,0.247,0.159,0.502,0.159,0.765
	c0,0.269-0.05,0.529-0.148,0.783s-0.238,0.476-0.417,0.666c-0.206,0.218-0.436,0.383-0.692,0.497
	c-0.255,0.112-0.528,0.169-0.817,0.169c-0.297,0-0.569-0.051-0.819-0.155c-0.25-0.103-0.474-0.256-0.673-0.458
	c-0.188-0.192-0.335-0.416-0.442-0.67C-131.561,283.033-131.614,282.773-131.614,282.507L-131.614,282.507L-131.614,282.507z
	 M-124.577,281.81l-0.826,2.651h-0.408l-1.399-3.914h0.774l0.831,2.587l0.819-2.587h0.444l0.812,2.587l0.834-2.587h0.768
	l-1.407,3.914h-0.407L-124.577,281.81z M-118.318,282.13c-0.091-0.323-0.247-0.572-0.47-0.75c-0.224-0.176-0.49-0.265-0.802-0.265
	c-0.318,0-0.594,0.091-0.828,0.272c-0.233,0.182-0.395,0.429-0.482,0.742H-118.318z M-120.923,282.764
	c0.062,0.327,0.214,0.593,0.457,0.795c0.244,0.203,0.534,0.304,0.869,0.304c0.239,0,0.458-0.056,0.656-0.167
	c0.196-0.112,0.354-0.269,0.472-0.473h0.819c-0.187,0.434-0.446,0.766-0.781,0.996c-0.334,0.23-0.723,0.345-1.166,0.345
	c-0.299,0-0.571-0.05-0.819-0.153c-0.247-0.102-0.471-0.255-0.672-0.459c-0.188-0.192-0.336-0.416-0.442-0.67
	c-0.106-0.255-0.16-0.516-0.16-0.781c0-0.275,0.049-0.533,0.146-0.772s0.239-0.458,0.428-0.655c0.2-0.213,0.428-0.374,0.68-0.482
	c0.252-0.107,0.527-0.161,0.826-0.161c0.354,0,0.685,0.08,0.989,0.24c0.306,0.161,0.557,0.384,0.755,0.671
	c0.118,0.178,0.205,0.373,0.262,0.585c0.056,0.212,0.084,0.455,0.084,0.728v0.11H-120.923z M-116.159,284.461h-0.727v-3.914h0.683
	v0.452c0.12-0.173,0.259-0.302,0.413-0.387c0.155-0.084,0.336-0.127,0.542-0.129v0.736c-0.325,0.023-0.559,0.117-0.699,0.28
	c-0.142,0.162-0.212,0.423-0.212,0.784V284.461z M-111.575,282.13c-0.09-0.323-0.247-0.572-0.47-0.75
	c-0.223-0.176-0.49-0.265-0.801-0.265c-0.318,0-0.594,0.091-0.828,0.272c-0.234,0.182-0.396,0.429-0.483,0.742H-111.575
	L-111.575,282.13z M-114.18,282.764c0.062,0.327,0.215,0.593,0.458,0.795s0.533,0.304,0.869,0.304c0.239,0,0.458-0.056,0.655-0.167
	s0.354-0.269,0.472-0.473h0.819c-0.186,0.434-0.446,0.766-0.781,0.996c-0.333,0.23-0.723,0.345-1.165,0.345
	c-0.299,0-0.572-0.05-0.819-0.153c-0.248-0.102-0.472-0.255-0.673-0.459c-0.188-0.192-0.336-0.416-0.442-0.67
	c-0.106-0.255-0.159-0.516-0.159-0.781c0-0.275,0.048-0.533,0.145-0.772s0.239-0.458,0.429-0.655c0.2-0.213,0.427-0.374,0.679-0.482
	c0.252-0.107,0.527-0.161,0.826-0.161c0.355,0,0.686,0.08,0.99,0.24c0.305,0.161,0.557,0.384,0.755,0.671
	c0.117,0.178,0.204,0.373,0.261,0.585c0.056,0.212,0.085,0.455,0.085,0.728v0.11H-114.18z M-109.603,282.479
	c0,0.396,0.136,0.728,0.406,0.996c0.271,0.269,0.602,0.402,0.993,0.402c0.357,0,0.673-0.135,0.945-0.404
	c0.273-0.27,0.41-0.584,0.41-0.945c0-0.384-0.135-0.714-0.406-0.987c-0.271-0.275-0.592-0.412-0.964-0.412
	c-0.382,0-0.708,0.13-0.979,0.392S-109.603,282.102-109.603,282.479L-109.603,282.479z M-106.885,284.461v-0.48
	c-0.187,0.187-0.394,0.33-0.622,0.425c-0.229,0.096-0.474,0.144-0.733,0.144c-0.606,0-1.111-0.196-1.513-0.588
	c-0.401-0.393-0.603-0.885-0.603-1.476c0-0.275,0.05-0.536,0.15-0.783c0.101-0.247,0.243-0.464,0.43-0.651
	c0.204-0.207,0.426-0.359,0.667-0.457c0.241-0.099,0.516-0.148,0.825-0.148c0.273,0,0.527,0.048,0.761,0.143
	c0.234,0.094,0.449,0.238,0.646,0.43v-1.74h0.727v5.181H-106.885L-106.885,284.461z M-102.337,281.451h0.246
	c0.399,0,0.684-0.059,0.854-0.176c0.17-0.117,0.255-0.311,0.255-0.582c0-0.24-0.077-0.417-0.231-0.532
	c-0.153-0.115-0.391-0.172-0.709-0.172h-0.414V281.451z M-102.345,283.76h0.609c0.358,0,0.621-0.064,0.79-0.193
	c0.169-0.13,0.253-0.33,0.253-0.6c0-0.294-0.088-0.517-0.264-0.669c-0.177-0.151-0.437-0.228-0.779-0.228h-0.609V283.76z
	 M-101.955,279.28c0.57,0,1.004,0.121,1.3,0.363c0.296,0.242,0.444,0.594,0.444,1.057c0,0.214-0.049,0.402-0.145,0.566
	c-0.097,0.164-0.238,0.299-0.425,0.406c0.263,0.076,0.469,0.222,0.621,0.438c0.151,0.216,0.228,0.473,0.228,0.772
	c0,0.242-0.047,0.469-0.139,0.682c-0.094,0.212-0.223,0.389-0.386,0.528c-0.162,0.133-0.346,0.228-0.55,0.285
	c-0.204,0.057-0.493,0.085-0.864,0.085h-1.235v-5.181H-101.955z M-99.686,280.547h0.782l1.091,2.914l1.183-2.914h0.782l-2.174,5.181
	h-0.768l0.562-1.377L-99.686,280.547z"/>
<path id="rect2481" inkscape:connector-curvature="0" fill="#02296B" d="M-168.21,282.334v0.49v10.84v0.491v0.061h1.41v-0.061h1.531
	v-0.491h-1.531v-10.84h1.531v-0.49H-168.21z"/>
<path id="path2488" inkscape:connector-curvature="0" fill="#02296B" d="M-163.861,282.334v0.49v10.84v0.491v0.061h1.41v-0.061
	h1.531v-0.491h-1.531v-10.84h1.531v-0.49H-163.861z"/>
<path id="path2492" inkscape:connector-curvature="0" fill="#02296B" d="M-140.524,282.334v0.49v10.84v0.491v0.061h-1.41v-0.061
	h-1.531v-0.491h1.531v-10.84h-1.531v-0.49H-140.524z"/>
<path id="path2494" inkscape:connector-curvature="0" fill="#02296B" d="M-144.812,282.334v0.49v10.84v0.491v0.061h-1.41v-0.061
	h-1.531v-0.491h1.531v-10.84h-1.531v-0.49H-144.812z"/>
<g>
	<path fill="#6E2636" d="M-144.583,278.93c-1.391-1.391-3.204-1.833-4.051-0.986c-0.182,0.181-0.304,0.408-0.37,0.666
		c-0.425-0.216-0.869-0.406-1.33-0.57c-1.212-0.428-3.094,0.055-3.931,0.055s-2.719-0.482-3.93-0.055
		c-0.461,0.164-0.905,0.354-1.331,0.57c-0.066-0.258-0.188-0.484-0.37-0.666c-0.846-0.846-2.66-0.404-4.051,0.986
		c-1.391,1.392-1.833,3.205-0.987,4.051c0.229,0.23,0.531,0.364,0.876,0.411c-0.356,0.898-0.549,1.86-0.549,2.862
		c0,4.903,4.63,8.876,10.341,8.876s10.342-3.974,10.342-8.876c0-1.001-0.194-1.964-0.55-2.862c0.345-0.046,0.646-0.181,0.876-0.411
		C-142.75,282.135-143.192,280.322-144.583,278.93z"/>
	<path fill="#FFFFFF" d="M-162.125,287.73c0,2.33,1.375,4.383,3.466,5.597c1.255,0.728,0.779,3.064,4.396,3.064
		c3.617,0,3.087-2.322,4.329-3.026c2.129-1.208,3.533-3.28,3.533-5.635c0-2.562-1.664-5.209-4.114-6.352
		c-1.114-0.52-2.391,0.561-3.748,0.561c-1.431,0-2.774-1.046-3.93-0.472C-160.545,282.633-162.125,285.232-162.125,287.73z"/>
	<path d="M-144.33,278.677c-0.952-0.953-2.127-1.521-3.144-1.521c-0.576,0-1.064,0.186-1.414,0.535
		c-0.125,0.125-0.229,0.268-0.312,0.426c-0.331-0.153-0.67-0.292-1.016-0.414c-0.376-0.133-0.827-0.198-1.377-0.198
		c-0.599,0-1.202,0.076-1.734,0.142c-0.381,0.048-0.71,0.089-0.938,0.089c-0.227,0-0.556-0.041-0.938-0.089
		c-0.533-0.066-1.136-0.142-1.734-0.142c-0.551,0-1.001,0.065-1.378,0.198c-0.345,0.121-0.685,0.26-1.016,0.414
		c-0.083-0.158-0.186-0.3-0.312-0.425c-0.35-0.35-0.839-0.536-1.414-0.536c-1.017,0-2.192,0.569-3.145,1.521
		c-1.555,1.555-1.988,3.557-0.987,4.558c0.18,0.181,0.403,0.319,0.655,0.41c-0.288,0.844-0.433,1.72-0.433,2.609
		c0,4.158,3.201,7.682,7.588,8.835c-0.215-0.305-0.375-0.624-0.542-0.917c-3.7-1.247-6.328-4.323-6.328-7.918
		c0-0.934,0.176-1.853,0.524-2.729l0.169-0.427l-0.455-0.061c-0.278-0.038-0.503-0.142-0.67-0.309
		c-0.693-0.693-0.241-2.315,0.987-3.543c0.809-0.809,1.819-1.311,2.637-1.311c0.265,0,0.638,0.056,0.907,0.325
		c0.131,0.131,0.224,0.3,0.276,0.5l0.111,0.433l0.398-0.202c0.414-0.209,0.847-0.395,1.287-0.55
		c0.299-0.105,0.671-0.157,1.139-0.157c0.554,0,1.133,0.072,1.646,0.137c0.405,0.05,0.754,0.094,1.026,0.094
		s0.622-0.044,1.027-0.094c0.512-0.064,1.092-0.137,1.646-0.137c0.468,0,0.84,0.051,1.139,0.156
		c0.441,0.156,0.875,0.342,1.287,0.551l0.399,0.203l0.111-0.433c0.052-0.202,0.145-0.37,0.276-0.501
		c0.269-0.268,0.642-0.324,0.907-0.324c0.817,0,1.828,0.502,2.637,1.311c1.228,1.228,1.679,2.85,0.987,3.543
		c-0.167,0.167-0.393,0.271-0.67,0.309l-0.455,0.061l0.169,0.427c0.348,0.877,0.524,1.795,0.524,2.729
		c0,3.61-2.65,6.696-6.374,7.933c-0.162,0.289-0.315,0.606-0.523,0.909c4.4-1.146,7.615-4.676,7.615-8.842
		c0-0.889-0.146-1.765-0.433-2.609c0.251-0.09,0.474-0.229,0.654-0.41C-142.341,282.233-142.775,280.231-144.33,278.677z"/>
	<path d="M-154.264,296.751c-2.646,0-3.302-1.197-3.83-2.159c-0.226-0.411-0.421-0.767-0.746-0.955
		c-2.282-1.323-3.644-3.531-3.644-5.906c0-2.669,1.698-5.377,4.13-6.585c0.284-0.141,0.588-0.209,0.931-0.209
		c0.519,0,1.051,0.163,1.566,0.32c0.523,0.159,1.063,0.325,1.593,0.325c0.507,0,1.031-0.179,1.537-0.351
		c0.506-0.172,1.03-0.351,1.546-0.351c0.297,0,0.564,0.057,0.817,0.175c2.544,1.187,4.321,3.933,4.321,6.677
		c0,2.403-1.389,4.627-3.715,5.946c-0.317,0.181-0.504,0.53-0.72,0.936C-150.961,295.515-151.62,296.751-154.264,296.751
		L-154.264,296.751z M-157.423,281.653c-0.229,0-0.43,0.044-0.612,0.135c-2.197,1.091-3.731,3.535-3.731,5.942
		c0,2.116,1.229,4.092,3.287,5.286c0.497,0.287,0.76,0.767,1.014,1.23c0.482,0.878,0.98,1.786,3.201,1.786
		c2.213,0,2.69-0.894,3.152-1.759c0.246-0.462,0.501-0.938,1-1.222c2.098-1.189,3.351-3.18,3.351-5.322
		c0-2.475-1.606-4.954-3.907-6.027c-0.479-0.225-1.13-0.033-1.829,0.205c-0.561,0.192-1.142,0.39-1.768,0.39
		c-0.636,0-1.229-0.182-1.802-0.356C-156.553,281.794-157.011,281.653-157.423,281.653L-157.423,281.653z"/>
	<path d="M-154.264,289.682c-1.616,0-2.882-0.909-2.882-2.068s1.266-2.067,2.882-2.067s2.882,0.908,2.882,2.067
		S-152.648,289.682-154.264,289.682L-154.264,289.682z"/>
	
		<ellipse transform="matrix(-0.9848 -0.1736 0.1736 -0.9848 -350.0046 538.2583)" cx="-151.465" cy="284.434" rx="1.399" ry="0.948"/>
	
		<ellipse transform="matrix(-0.9848 0.1736 -0.1736 -0.9848 -262.3681 591.8146)" cx="-157.063" cy="284.434" rx="1.399" ry="0.948"/>
	<path d="M-150.016,283.427c-0.107,0-0.213-0.048-0.284-0.139c-0.166-0.214-0.472-0.378-0.819-0.439
		c-0.291-0.052-0.575-0.026-0.801,0.069c-0.181,0.078-0.393-0.007-0.471-0.189c-0.078-0.183,0.007-0.393,0.189-0.47
		c0.352-0.15,0.78-0.192,1.206-0.116c0.527,0.092,0.986,0.349,1.262,0.706c0.122,0.156,0.093,0.381-0.064,0.503
		C-149.862,283.402-149.939,283.427-150.016,283.427L-150.016,283.427z"/>
	<path d="M-158.513,283.487c-0.076,0-0.153-0.025-0.218-0.075c-0.157-0.121-0.187-0.346-0.065-0.503
		c0.274-0.356,0.734-0.613,1.262-0.707c0.438-0.076,0.876-0.032,1.231,0.127c0.181,0.082,0.262,0.293,0.181,0.474
		s-0.292,0.263-0.474,0.181c-0.224-0.101-0.521-0.128-0.814-0.076c-0.349,0.062-0.655,0.226-0.818,0.438
		C-158.299,283.438-158.405,283.487-158.513,283.487L-158.513,283.487z"/>
	<path d="M-154.264,293.923c-1.821,0-3.447-0.885-4.244-2.308c-0.097-0.173-0.035-0.391,0.138-0.487
		c0.173-0.098,0.391-0.035,0.488,0.138c0.659,1.179,2.079,1.939,3.617,1.939c1.539,0,2.958-0.761,3.617-1.939
		c0.097-0.173,0.315-0.235,0.488-0.138c0.172,0.096,0.234,0.314,0.138,0.487C-150.816,293.038-152.442,293.923-154.264,293.923
		L-154.264,293.923z"/>
	<path d="M-164.056,283.751c-0.121,0-0.238-0.06-0.306-0.171c-0.104-0.169-0.05-0.39,0.119-0.493
		c0.575-0.352,2.157-1.368,2.569-1.826c0.241-0.267,0.264-0.668,0.165-0.91c-0.016-0.038-0.074-0.161-0.156-0.166
		c-0.433-0.026-1.019,0.244-1.094,0.61c-0.071,0.347,0.022,0.472,0.023,0.473c0.15,0.129,0.157,0.345,0.027,0.495
		c-0.128,0.15-0.366,0.158-0.516,0.029c-0.067-0.058-0.393-0.383-0.237-1.14c0.156-0.758,1.078-1.215,1.834-1.183
		c0.338,0.018,0.63,0.245,0.78,0.608c0.183,0.44,0.169,1.15-0.293,1.664c-0.557,0.619-2.507,1.822-2.728,1.958
		C-163.928,283.734-163.992,283.751-164.056,283.751L-164.056,283.751z"/>
	<path d="M-154.264,293.923c-0.198,0-0.358-0.16-0.358-0.358v-2.452c0-0.198,0.161-0.358,0.358-0.358
		c0.198,0,0.359,0.16,0.359,0.358v2.452C-153.905,293.763-154.066,293.923-154.264,293.923L-154.264,293.923z"/>
	<path fill="#6E2636" d="M-153.427,288.726c-0.198,0-0.358-0.161-0.358-0.359v-1.256c0-0.198,0.161-0.358,0.358-0.358
		c0.198,0,0.359,0.16,0.359,0.358v1.256C-153.068,288.564-153.229,288.726-153.427,288.726L-153.427,288.726z"/>
	<path fill="#6E2636" d="M-155.101,288.726c-0.198,0-0.359-0.161-0.359-0.359v-1.256c0-0.198,0.161-0.358,0.359-0.358
		c0.198,0,0.359,0.16,0.359,0.358v1.256C-154.742,288.564-154.903,288.726-155.101,288.726L-155.101,288.726z"/>
	<path d="M-144.472,283.751c-0.063,0-0.128-0.017-0.187-0.053c-0.22-0.135-2.171-1.339-2.729-1.958
		c-0.462-0.514-0.476-1.223-0.293-1.665c0.15-0.362,0.442-0.589,0.78-0.607c0.768-0.036,1.679,0.425,1.834,1.183
		c0.156,0.757-0.17,1.082-0.237,1.14c-0.149,0.129-0.376,0.112-0.505-0.039s-0.113-0.375,0.036-0.504
		c-0.004,0.009,0.076-0.105,0.004-0.453c-0.076-0.366-0.663-0.637-1.095-0.61c-0.082,0.005-0.14,0.128-0.155,0.166
		c-0.1,0.241-0.077,0.643,0.164,0.91c0.412,0.458,1.995,1.474,2.57,1.826c0.169,0.103,0.222,0.324,0.119,0.493
		C-144.233,283.691-144.352,283.751-144.472,283.751L-144.472,283.751z"/>
</g>
<text transform="matrix(0.87 0 0 1 -137.8975 296.4678)"><tspan x="0" y="0" fill="#006699" font-family="'GillSans-SemiBold'" font-size="13">Medi</tspan><tspan x="27.391" y="0" fill="#006699" font-family="'GillSans-SemiBold'" font-size="13" letter-spacing="-1.149">a</tspan><tspan x="32.368" y="0" fill="#006699" font-family="'GillSans-SemiBold'" font-size="13">Triki</tspan></text>
</svg>
