<?xml version="1.0" encoding="utf-8"?>
<!-- Generator: Adobe Illustrator 14.0.0, SVG Export Plug-In . SVG Version: 6.00 Build 43363)  -->
<!DOCTYPE svg PUBLIC "-//W3C//DTD SVG 1.1//EN" "http://www.w3.org/Graphics/SVG/1.1/DTD/svg11.dtd">
<svg version="1.1"
	 id="svg2" xmlns:cc="http://creativecommons.org/ns#" inkscape:version="0.48.4 r" xmlns:dc="http://purl.org/dc/elements/1.1/" xmlns:rdf="http://www.w3.org/1999/02/22-rdf-syntax-ns#" xmlns:sodipodi="http://sodipodi.sourceforge.net/DTD/sodipodi-0.dtd" xmlns:inkscape="http://www.inkscape.org/namespaces/inkscape" sodipodi:docname="Wikimedia_button.svg" xmlns:svg="http://www.w3.org/2000/svg"
	 xmlns="http://www.w3.org/2000/svg" xmlns:xlink="http://www.w3.org/1999/xlink" x="0px" y="0px" width="88px" height="31px"
	 viewBox="0 0 88 31" enable-background="new 0 0 88 31" xml:space="preserve">
<defs>
	
	
		<inkscape:perspective  id="perspective2673" inkscape:persp3d-origin="372.04724 : 350.78739 : 1" inkscape:vp_z="744.09448 : 526.18109 : 1" inkscape:vp_x="0 : 526.18109 : 1" sodipodi:type="inkscape:persp3d" inkscape:vp_y="0 : 1000 : 0">
		</inkscape:perspective>
	
		<inkscape:perspective  id="perspective2455" inkscape:persp3d-origin="372.04724 : 350.78739 : 1" inkscape:vp_z="744.09448 : 526.18109 : 1" inkscape:vp_x="0 : 526.18109 : 1" sodipodi:type="inkscape:persp3d" inkscape:vp_y="0 : 1000 : 0">
		</inkscape:perspective>
	
		<inkscape:perspective  id="perspective2390" inkscape:persp3d-origin="372.04724 : 350.78739 : 1" inkscape:vp_z="744.09448 : 526.18109 : 1" inkscape:vp_x="0 : 526.18109 : 1" sodipodi:type="inkscape:persp3d" inkscape:vp_y="0 : 1000 : 0">
		</inkscape:perspective>
	
		<inkscape:perspective  id="perspective10" inkscape:persp3d-origin="372.04724 : 350.78739 : 1" inkscape:vp_z="744.09448 : 526.18109 : 1" inkscape:vp_x="0 : 526.18109 : 1" sodipodi:type="inkscape:persp3d" inkscape:vp_y="0 : 1000 : 0">
		</inkscape:perspective>
</defs>
<sodipodi:namedview  id="base" inkscape:window-y="0" inkscape:window-x="0" inkscape:window-height="852" inkscape:window-width="1440" fit-margin-bottom="0" fit-margin-right="0" fit-margin-left="0" fit-margin-top="0" showgrid="false" inkscape:current-layer="layer3" inkscape:document-units="px" inkscape:cy="22.076182" inkscape:cx="34.974137" inkscape:zoom="8" inkscape:pageshadow="2" inkscape:pageopacity="0.0" borderopacity="1.0" bordercolor="#666666" pagecolor="#ffffff" inkscape:window-maximized="1">
	</sodipodi:namedview>
<g id="layer1" transform="translate(-624.92853,-756.95148)" inkscape:groupmode="layer" inkscape:label="Button">
	<g id="g3427">
		
			<linearGradient id="rect3324_1_" gradientUnits="userSpaceOnUse" x1="1100.4841" y1="-82.219" x2="1100.629" y2="-113.6725" gradientTransform="matrix(0.9888 0 0 -0.9836 -419.2615 676.462)">
			<stop  offset="0" style="stop-color:#FFFFFF"/>
			<stop  offset="1" style="stop-color:#EBEBEB"/>
		</linearGradient>
		<linearGradient id="rect3324_2_" gradientUnits="userSpaceOnUse" x1="838.4588" y1="304.3328" x2="838.7576" y2="273.8246">
			<stop  offset="0" style="stop-color:#C8C8C8"/>
			<stop  offset="1" style="stop-color:#787878"/>
		</linearGradient>
		<path id="rect3324" fill="url(#rect3324_1_)" stroke="url(#rect3324_2_)" stroke-width="0.4973" d="M629.959,757.2h77.939
			c2.641,0,4.782,1.851,4.782,4.135v22.234c0,2.283-2.142,4.135-4.782,4.135h-77.939c-2.641,0-4.782-1.852-4.782-4.135v-22.234
			C625.177,759.051,627.318,757.2,629.959,757.2z"/>
	</g>
</g>
<g id="g3361" transform="matrix(0.01916058,0,0,0.01916058,15.79614,15.653285)">
	<g>
		<defs>
			<polygon id="SVGID_1_" points="-3960.644,296.163 -3960.644,721.17 -4055.619,721.17 -4055.619,296.163 -4607.608,-255.826 
				-4607.608,994.145 -3408.654,994.145 -3408.654,-255.826 			"/>
		</defs>
		<clipPath id="SVGID_2_">
			<use xlink:href="#SVGID_1_"  overflow="visible"/>
		</clipPath>
		<g id="g3350" clip-path="url(#SVGID_2_)">
			
				<circle id="green_parts" sodipodi:ry="336.5" sodipodi:rx="336.5" sodipodi:cy="0" sodipodi:cx="0" fill="#339966" cx="-4008.144" cy="383.646" r="336.504">
			</circle>
			
				<circle id="blue_arc" sodipodi:ry="480.25" sodipodi:rx="480.25" sodipodi:cy="0" sodipodi:cx="0" fill="none" stroke="#006699" stroke-width="135.5" cx="-4008.144" cy="383.672" r="480.254">
			</circle>
		</g>
	</g>
	
		<circle id="red_circle" sodipodi:ry="184.5" sodipodi:rx="184.5" sodipodi:cy="-379.5" sodipodi:cx="0" fill="#990000" cx="-4008.144" cy="4.178" r="184.497">
	</circle>
</g>
<g id="text4223">
	<path id="path4244" fill="#818888" d="M56.875,5.493v1.718c0,0.138,0.047,0.207,0.141,0.207c0.097,0,0.248-0.072,0.453-0.215V7.69
		c-0.182,0.117-0.328,0.196-0.439,0.237c-0.109,0.044-0.223,0.066-0.344,0.066c-0.342,0-0.545-0.135-0.605-0.404
		c-0.34,0.264-0.702,0.396-1.086,0.396c-0.281,0-0.516-0.092-0.703-0.277C54.104,7.52,54.01,7.286,54.01,7.004
		c0-0.255,0.091-0.482,0.272-0.681c0.185-0.202,0.445-0.362,0.782-0.479l1.023-0.352V5.277c0-0.486-0.242-0.729-0.729-0.729
		c-0.438,0-0.861,0.226-1.275,0.677V4.35c0.311-0.366,0.758-0.549,1.341-0.549c0.437,0,0.786,0.114,1.05,0.343
		c0.088,0.073,0.168,0.171,0.238,0.294c0.07,0.12,0.113,0.242,0.131,0.365C56.865,4.923,56.875,5.153,56.875,5.493 M56.088,7.123
		v-1.2L55.553,6.13c-0.273,0.108-0.467,0.218-0.58,0.33c-0.111,0.108-0.168,0.245-0.168,0.409c0,0.167,0.053,0.303,0.158,0.409
		c0.109,0.105,0.248,0.158,0.418,0.158C55.636,7.435,55.871,7.331,56.088,7.123"/>
</g>
<g id="text4227">
	<path id="path4266" fill="#818888" d="M42.979,27.144V21.04h1.402c0.718,0,1.276,0.179,1.674,0.536
		c0.401,0.357,0.603,0.857,0.603,1.498c0,0.607-0.189,1.105-0.567,1.494c-0.375,0.391-0.854,0.585-1.437,0.585
		c-0.258,0-0.544-0.058-0.857-0.171v2.162H42.979 M44.364,21.787h-0.567v2.487c0.246,0.126,0.504,0.188,0.773,0.188
		c0.375,0,0.682-0.13,0.918-0.391c0.24-0.261,0.361-0.596,0.361-1.006c0-0.264-0.058-0.497-0.172-0.699
		c-0.111-0.202-0.266-0.349-0.461-0.439C45.023,21.834,44.738,21.787,44.364,21.787"/>
	<path id="path4268" fill="#818888" d="M48.389,21.04v0.927l0.045-0.07c0.387-0.623,0.773-0.936,1.16-0.936
		c0.301,0,0.616,0.152,0.944,0.457l-0.422,0.703c-0.278-0.264-0.536-0.396-0.773-0.396c-0.258,0-0.481,0.123-0.673,0.369
		c-0.188,0.246-0.281,0.538-0.281,0.874v2.114h-0.804V21.04H48.389"/>
	<path id="path4270" fill="#818888" d="M52.814,21.031c0.615,0,1.127,0.199,1.533,0.598c0.408,0.396,0.611,0.894,0.611,1.494
		c0,0.583-0.207,1.068-0.619,1.455c-0.414,0.383-0.934,0.575-1.561,0.575c-0.606,0-1.113-0.194-1.521-0.585
		c-0.407-0.393-0.61-0.881-0.61-1.467c0-0.592,0.205-1.084,0.615-1.477C51.676,21.228,52.193,21.031,52.814,21.031 M52.771,21.752
		c-0.384,0-0.698,0.126-0.944,0.378s-0.369,0.573-0.369,0.962c0,0.387,0.125,0.703,0.377,0.949c0.252,0.244,0.576,0.365,0.972,0.365
		c0.393,0,0.714-0.123,0.962-0.369c0.252-0.249,0.379-0.566,0.379-0.953c0-0.385-0.131-0.702-0.392-0.954
		S53.166,21.752,52.771,21.752"/>
	<path id="path4272" fill="#818888" d="M56.233,19.34c0.132,0,0.245,0.047,0.339,0.141c0.094,0.09,0.141,0.2,0.141,0.329
		c0,0.135-0.046,0.247-0.137,0.339c-0.088,0.09-0.199,0.136-0.334,0.136c-0.126,0-0.237-0.047-0.334-0.141s-0.145-0.205-0.145-0.334
		c0-0.123,0.047-0.231,0.141-0.325C56,19.388,56.11,19.34,56.233,19.34 M55.855,21.04h0.8v4.618c0,0.701-0.27,1.195-0.809,1.486
		l-0.593-0.585c0.184-0.064,0.33-0.177,0.439-0.339c0.107-0.16,0.162-0.348,0.162-0.562V21.04"/>
	<path id="path4274" fill="#818888" d="M61.278,23.132h-2.843c0.02,0.387,0.148,0.694,0.387,0.923
		c0.24,0.229,0.549,0.343,0.927,0.343c0.527,0,1.014-0.164,1.459-0.492v0.782c-0.246,0.164-0.491,0.281-0.733,0.352
		c-0.24,0.07-0.523,0.105-0.849,0.105c-0.445,0-0.806-0.092-1.081-0.277c-0.275-0.184-0.496-0.432-0.664-0.742
		c-0.164-0.313-0.246-0.676-0.246-1.086c0-0.615,0.175-1.114,0.523-1.498c0.349-0.387,0.801-0.58,1.357-0.58
		c0.537,0,0.965,0.188,1.283,0.562c0.32,0.375,0.479,0.877,0.479,1.508V23.132 M58.453,22.652h2.034
		c-0.021-0.318-0.116-0.564-0.286-0.738c-0.17-0.172-0.398-0.259-0.686-0.259s-0.522,0.087-0.707,0.259
		C58.627,22.088,58.508,22.334,58.453,22.652"/>
	<path id="path4276" fill="#818888" d="M65.172,24.139v0.791c-0.401,0.148-0.794,0.224-1.178,0.224
		c-0.633,0-1.139-0.188-1.516-0.562c-0.375-0.375-0.562-0.878-0.562-1.507c0-0.637,0.183-1.148,0.549-1.539
		c0.366-0.389,0.848-0.584,1.445-0.584c0.209,0,0.395,0.021,0.559,0.062c0.167,0.038,0.372,0.111,0.615,0.22v0.853
		c-0.404-0.258-0.779-0.387-1.125-0.387c-0.36,0-0.656,0.128-0.888,0.382c-0.231,0.252-0.347,0.574-0.347,0.967
		c0,0.414,0.124,0.742,0.373,0.984c0.252,0.244,0.59,0.365,1.016,0.365C64.42,24.406,64.773,24.316,65.172,24.139"/>
	<path id="path4278" fill="#818888" d="M65.51,21.682l1.504-1.477v0.835h1.278v0.721h-1.278v1.981c0,0.463,0.191,0.695,0.575,0.695
		c0.287,0,0.591-0.098,0.909-0.291v0.748c-0.307,0.172-0.643,0.259-1.006,0.259c-0.366,0-0.671-0.106-0.914-0.321
		c-0.076-0.064-0.139-0.136-0.189-0.215c-0.049-0.082-0.092-0.188-0.127-0.316c-0.032-0.132-0.049-0.381-0.049-0.747v-1.793H65.51
		V21.682"/>
</g>
<g>
	<path fill="#6E2636" d="M18.302,28.93c-3.669,0-4.581-1.661-5.312-2.995c-0.313-0.57-0.583-1.063-1.034-1.324
		C8.79,22.775,6.9,19.712,6.9,16.419c0-3.704,2.356-7.459,5.729-9.134c0.395-0.196,0.816-0.291,1.291-0.291
		c0.72,0,1.458,0.226,2.171,0.444c0.726,0.221,1.476,0.451,2.21,0.451c0.703,0,1.429-0.248,2.131-0.486
		c0.702-0.24,1.429-0.487,2.143-0.487c0.414,0,0.783,0.079,1.134,0.242c3.529,1.646,5.994,5.455,5.994,9.262
		c0,3.334-1.927,6.418-5.153,8.246c-0.439,0.251-0.699,0.736-0.999,1.298C22.883,27.215,21.969,28.93,18.302,28.93L18.302,28.93z
		 M13.92,7.989c-0.317,0-0.595,0.062-0.848,0.187c-3.047,1.513-5.176,4.902-5.176,8.243c0,2.935,1.705,5.675,4.56,7.329
		c0.689,0.401,1.054,1.065,1.406,1.708c0.668,1.219,1.359,2.478,4.44,2.478c3.07,0,3.732-1.239,4.372-2.439
		c0.342-0.64,0.696-1.301,1.387-1.693c2.911-1.652,4.647-4.411,4.647-7.382c0-3.435-2.227-6.872-5.418-8.36
		c-0.216-0.101-0.449-0.149-0.713-0.149c-0.549,0-1.168,0.211-1.822,0.435c-0.778,0.265-1.584,0.54-2.452,0.54
		c-0.883,0-1.704-0.251-2.5-0.494C15.127,8.184,14.491,7.989,13.92,7.989L13.92,7.989z"/>
	
		<ellipse transform="matrix(-0.9848 -0.1738 0.1738 -0.9848 41.9715 27.3679)" fill="#6E2636" cx="22.184" cy="11.846" rx="1.941" ry="1.315"/>
	
		<ellipse transform="matrix(-0.9848 0.1738 -0.1738 -0.9848 30.6784 21.0056)" fill="#6E2636" cx="14.419" cy="11.846" rx="1.941" ry="1.315"/>
	<path fill="#6E2636" d="M24.195,10.448c-0.149,0-0.297-0.066-0.395-0.193c-0.228-0.296-0.653-0.523-1.136-0.609
		c-0.404-0.071-0.798-0.037-1.11,0.097c-0.251,0.108-0.545-0.01-0.653-0.262c-0.108-0.253,0.009-0.545,0.262-0.653
		c0.486-0.208,1.082-0.267,1.674-0.162c0.732,0.129,1.369,0.486,1.75,0.98c0.169,0.218,0.128,0.53-0.09,0.698
		C24.408,10.414,24.301,10.448,24.195,10.448L24.195,10.448z"/>
	<path fill="#6E2636" d="M12.409,10.531c-0.106,0-0.213-0.034-0.303-0.104c-0.218-0.168-0.259-0.48-0.09-0.698
		c0.381-0.494,1.019-0.852,1.75-0.981c0.608-0.106,1.214-0.044,1.708,0.178c0.25,0.112,0.364,0.406,0.251,0.658
		c-0.113,0.25-0.406,0.362-0.658,0.25c-0.309-0.139-0.721-0.177-1.128-0.105c-0.482,0.085-0.908,0.312-1.136,0.608
		C12.705,10.465,12.558,10.531,12.409,10.531L12.409,10.531z"/>
	<path fill="#6E2636" d="M18.302,25.007c-2.526,0-4.782-1.226-5.885-3.201c-0.134-0.239-0.049-0.543,0.191-0.677
		c0.239-0.134,0.543-0.048,0.677,0.192c0.915,1.634,2.884,2.689,5.017,2.689s4.103-1.056,5.017-2.689
		c0.134-0.24,0.438-0.326,0.676-0.192c0.24,0.134,0.326,0.438,0.192,0.677C23.083,23.781,20.828,25.007,18.302,25.007L18.302,25.007
		z"/>
	<path fill="#6E2636" d="M4.72,10.899c-0.167,0-0.331-0.085-0.425-0.238c-0.144-0.234-0.07-0.54,0.164-0.683
		c0.798-0.489,2.993-1.896,3.565-2.532C8.357,7.074,8.39,6.518,8.251,6.183c-0.022-0.052-0.102-0.225-0.215-0.23
		C7.435,5.923,6.623,6.292,6.519,6.8C6.419,7.279,6.549,7.453,6.55,7.455c-0.016-0.021-0.03-0.029-0.03-0.029L5.872,8.181
		C5.78,8.101,5.327,7.649,5.543,6.599c0.217-1.05,1.492-1.695,2.544-1.64c0.469,0.024,0.875,0.34,1.083,0.843
		C9.424,6.415,9.405,7.397,8.764,8.11c-0.773,0.857-3.478,2.527-3.785,2.715C4.898,10.875,4.809,10.899,4.72,10.899L4.72,10.899z"/>
	<path fill="#6E2636" d="M18.302,25.007c-0.275,0-0.498-0.223-0.498-0.497v-3.4c0-0.275,0.223-0.498,0.498-0.498
		s0.498,0.223,0.498,0.498v3.4C18.799,24.784,18.577,25.007,18.302,25.007L18.302,25.007z"/>
	<path fill="#6E2636" d="M18.302,13.388c-2.242,0-3.997,1.26-3.997,2.868s1.755,2.867,3.997,2.867s3.997-1.259,3.997-2.867
		S20.544,13.388,18.302,13.388z M17.638,17.3c0,0.275-0.222,0.497-0.497,0.497s-0.498-0.222-0.498-0.497v-1.743
		c0-0.274,0.223-0.497,0.498-0.497s0.497,0.222,0.497,0.497V17.3z M19.96,17.3c0,0.275-0.223,0.497-0.498,0.497
		c-0.275,0-0.498-0.222-0.498-0.497v-1.743c0-0.274,0.223-0.497,0.498-0.497c0.274,0,0.498,0.222,0.498,0.497V17.3z"/>
	<path fill="#6E2636" d="M31.884,10.899c-0.089,0-0.179-0.024-0.259-0.074c-0.307-0.188-3.012-1.857-3.785-2.715
		c-0.642-0.713-0.661-1.695-0.407-2.308c0.208-0.503,0.613-0.819,1.083-0.843c1.053-0.055,2.328,0.591,2.544,1.64
		c0.217,1.05-0.236,1.501-0.329,1.582l-0.648-0.755c0,0-0.014,0.007-0.03,0.029c0.001-0.002,0.131-0.175,0.032-0.654
		c-0.104-0.508-0.914-0.878-1.518-0.848c-0.113,0.006-0.193,0.178-0.215,0.23c-0.139,0.335-0.106,0.891,0.228,1.262
		c0.572,0.636,2.767,2.043,3.564,2.532c0.235,0.143,0.309,0.449,0.165,0.683C32.215,10.814,32.051,10.899,31.884,10.899
		L31.884,10.899z"/>
	<path fill="#6E2636" d="M32.082,3.86c-1.322-1.321-2.952-2.11-4.361-2.11c-0.798,0-1.476,0.256-1.961,0.742
		c-0.174,0.173-0.318,0.371-0.431,0.591c-0.459-0.213-0.931-0.406-1.41-0.575c-0.522-0.184-1.147-0.273-1.911-0.273
		c-0.83,0-1.667,0.104-2.405,0.196c-0.529,0.066-0.985,0.123-1.3,0.123S17.53,2.497,17,2.431c-0.737-0.092-1.575-0.196-2.404-0.196
		c-0.764,0-1.39,0.089-1.911,0.273c-0.479,0.169-0.951,0.362-1.41,0.575c-0.113-0.22-0.258-0.418-0.431-0.591
		C10.358,2.006,9.681,1.75,8.882,1.75c-1.409,0-3.039,0.789-4.361,2.11c-2.156,2.156-2.757,4.934-1.368,6.322
		c0.25,0.25,0.559,0.442,0.908,0.567c-0.398,1.172-0.601,2.386-0.601,3.619c0,5.768,4.44,10.656,10.523,12.256
		c-0.294-0.416-0.511-0.855-0.74-1.258c-5.14-1.728-8.788-6.007-8.788-10.998c0-1.295,0.244-2.569,0.727-3.786l0.235-0.591
		L4.787,9.907c-0.385-0.052-0.698-0.196-0.93-0.428C2.896,8.518,3.523,6.267,5.225,4.564c1.122-1.123,2.524-1.819,3.657-1.819
		c0.369,0,0.886,0.078,1.259,0.45c0.182,0.183,0.311,0.417,0.382,0.695l0.155,0.601l0.553-0.281
		c0.572-0.291,1.172-0.548,1.785-0.763c0.415-0.146,0.931-0.218,1.581-0.218c0.767,0,1.571,0.1,2.281,0.189
		c0.562,0.07,1.047,0.131,1.424,0.131s0.863-0.061,1.424-0.131c0.709-0.089,1.513-0.189,2.281-0.189
		c0.649,0,1.166,0.071,1.581,0.218C24.2,3.662,24.8,3.919,25.373,4.21l0.553,0.281l0.155-0.601c0.071-0.279,0.2-0.513,0.382-0.695
		c0.373-0.372,0.89-0.45,1.258-0.45c1.134,0,2.536,0.696,3.658,1.819c1.702,1.703,2.33,3.954,1.368,4.915
		c-0.231,0.232-0.545,0.376-0.93,0.428l-0.631,0.085l0.235,0.591c0.482,1.217,0.726,2.49,0.726,3.786
		c0,5.012-3.677,9.305-8.85,11.019c-0.223,0.396-0.43,0.833-0.714,1.247c6.103-1.59,10.56-6.487,10.56-12.266
		c0-1.233-0.203-2.447-0.602-3.619c0.35-0.125,0.657-0.317,0.908-0.567C34.839,8.794,34.238,6.017,32.082,3.86z"/>
</g>
<text transform="matrix(0.8 0 0 1 34.4966 17.2753)" fill="#6E2636" font-family="'GillSans-Bold'" font-size="10">TRIKIMEDIA</text>
</svg>
